<svg xmlns="http://www.w3.org/2000/svg" width="324.883" height="79.793" viewBox="0 0 324.883 99.793">
  <g id="Group_200" data-name="Group 200" transform="translate(-798 -84.978)">
    <path id="Path_2" data-name="Path 2" d="M258.736,358.935h12.628v25.092l23.288-25.092H309.9l-23.37,24.355,24.437,33.046H295.8L278.006,391.9l-6.642,6.889v17.548H258.736Z" transform="translate(539.264 -273.957)" fill="#161615"/>
    <path id="Path_3" data-name="Path 3" d="M331.634,358.935h26.24c7.3,0,12.956,2.05,16.727,5.823,3.2,3.2,4.92,7.708,4.92,13.12v.164c0,9.265-5,15.088-12.3,17.794l14.022,20.5H366.483l-12.3-18.368h-9.922v18.368H331.634Zm25.42,27.88c6.15,0,9.675-3.279,9.675-8.118v-.164c0-5.412-3.771-8.2-9.921-8.2H344.262v16.481Z" transform="translate(539.264 -273.957)" fill="#161615"/>
    <path id="Path_4" data-name="Path 4" d="M404.039,358.935h43.3V370.17H416.585v11.643h27.06v11.235h-27.06V405.1h31.16v11.235H404.039Z" transform="translate(539.264 -273.957)" fill="#161615"/>
    <path id="Path_5" data-name="Path 5" d="M485.465,370.579H468V358.935H515.56v11.644H498.093v45.757H485.465Z" transform="translate(539.264 -273.957)" fill="#161615"/>
    <path id="Path_6" data-name="Path 6" d="M535.812,406.742l31.571-36.736H536.8V358.935h46.823v9.594l-31.57,36.736h31.57v11.071H535.812Z" transform="translate(539.264 -273.957)" fill="#161615"/>
    <path id="Path_7" data-name="Path 7" d="M338.9,450.213h6.248v1.343H340.38v2.29h4.233v1.344H340.38v3.418H338.9Z" transform="translate(539.264 -273.957)" fill="#161615"/>
    <path id="Path_8" data-name="Path 8" d="M350.7,450.153h1.367l3.694,8.455H354.2l-.851-2.027h-3.97l-.863,2.027h-1.512Zm2.111,5.121-1.452-3.358-1.438,3.358Z" transform="translate(539.264 -273.957)" fill="#161615"/>
    <path id="Path_9" data-name="Path 9" d="M359.113,450.213h1.571l2.554,3.969,2.555-3.969h1.571v8.395h-1.475v-6.02l-2.651,3.958h-.048l-2.626-3.935v6h-1.451Z" transform="translate(539.264 -273.957)" fill="#161615"/>
    <path id="Path_10" data-name="Path 10" d="M371.52,450.213H373v8.395H371.52Z" transform="translate(539.264 -273.957)" fill="#161615"/>
    <path id="Path_11" data-name="Path 11" d="M377.16,450.213h1.476v7.051h4.413v1.344H377.16Z" transform="translate(539.264 -273.957)" fill="#161615"/>
    <path id="Path_12" data-name="Path 12" d="M387.406,455.3l-3.334-5.085h1.739l2.351,3.717,2.375-3.717h1.691l-3.335,5.049v3.346h-1.487Z" transform="translate(539.264 -273.957)" fill="#161615"/>
    <path id="Path_13" data-name="Path 13" d="M400.968,450.213h3.742a3.381,3.381,0,0,1,2.423.839,2.544,2.544,0,0,1,.7,1.811v.024a2.518,2.518,0,0,1-2,2.542l2.267,3.179h-1.74l-2.062-2.927h-1.847v2.927h-1.475Zm3.633,4.162c1.056,0,1.728-.552,1.728-1.4v-.024c0-.9-.647-1.391-1.739-1.391h-2.147v2.819Z" transform="translate(539.264 -273.957)" fill="#161615"/>
    <path id="Path_14" data-name="Path 14" d="M411.564,450.213h6.225v1.319h-4.75v2.183h4.21v1.319h-4.21v2.255h4.81v1.319h-6.285Z" transform="translate(539.264 -273.957)" fill="#161615"/>
    <path id="Path_15" data-name="Path 15" d="M424.486,450.153h1.367l3.694,8.455h-1.559l-.851-2.027h-3.97l-.863,2.027h-1.512Zm2.111,5.121-1.452-3.358-1.438,3.358Z" transform="translate(539.264 -273.957)" fill="#161615"/>
    <path id="Path_16" data-name="Path 16" d="M432.9,450.213h1.475v7.051h4.414v1.344H432.9Z" transform="translate(539.264 -273.957)" fill="#161615"/>
    <path id="Path_17" data-name="Path 17" d="M447.768,450.213h6.224v1.319h-4.749v2.183h4.209v1.319h-4.209v2.255h4.809v1.319h-6.284Z" transform="translate(539.264 -273.957)" fill="#161615"/>
    <path id="Path_18" data-name="Path 18" d="M457.151,457.385l.888-1.055a3.868,3.868,0,0,0,2.65,1.091c.912,0,1.488-.42,1.488-1.056v-.023c0-.6-.336-.924-1.895-1.284-1.787-.431-2.8-.96-2.8-2.507v-.024c0-1.438,1.2-2.434,2.866-2.434a4.656,4.656,0,0,1,3.047,1.055l-.792,1.115a3.812,3.812,0,0,0-2.278-.863c-.863,0-1.367.443-1.367.995v.025c0,.647.384.935,1.99,1.319,1.775.432,2.7,1.067,2.7,2.458v.024c0,1.572-1.235,2.507-3,2.507A5.175,5.175,0,0,1,457.151,457.385Z" transform="translate(539.264 -273.957)" fill="#161615"/>
    <path id="Path_19" data-name="Path 19" d="M469.186,451.58h-2.663v-1.367h6.813v1.367h-2.662v7.028h-1.488Z" transform="translate(539.264 -273.957)" fill="#161615"/>
    <path id="Path_20" data-name="Path 20" d="M478.7,450.153h1.367l3.694,8.455H482.2l-.852-2.027h-3.969l-.864,2.027h-1.511Zm2.11,5.121-1.451-3.358-1.438,3.358Z" transform="translate(539.264 -273.957)" fill="#161615"/>
    <path id="Path_21" data-name="Path 21" d="M488.1,451.58h-2.663v-1.367h6.813v1.367h-2.663v7.028H488.1Z" transform="translate(539.264 -273.957)" fill="#161615"/>
    <path id="Path_22" data-name="Path 22" d="M495.72,450.213h6.224v1.319h-4.75v2.183h4.21v1.319h-4.21v2.255H502v1.319H495.72Z" transform="translate(539.264 -273.957)" fill="#161615"/>
  </g>
</svg>
