<svg xmlns="http://www.w3.org/2000/svg" width="153.214" height="153.214" viewBox="0 0 183.214 183.214"><path d="M488.274,166.269q-1.363-1.468-2.79-2.878a91.526,91.526,0,0,0-91.4-22.345q-2.021.625-4,1.346a91.581,91.581,0,0,0-51.343,126.1q.985,2.028,2.069,4a92.118,92.118,0,0,0,49.274,42.238q1.98.717,4,1.346A91.545,91.545,0,0,0,490.1,288.834q1.32-1.509,2.574-3.075a91.414,91.414,0,0,0-4.4-119.49Zm-67.1-25.313A87.315,87.315,0,0,1,482.436,166l-23.928,20.491a56.238,56.238,0,0,0-64.423-7.242v-34A87.266,87.266,0,0,1,421.176,140.957Zm-27.09,100.708V183.873a52.247,52.247,0,0,1,61.361,5.243Zm-60.517-13.1a87.749,87.749,0,0,1,56.517-81.9V268.5H343.212A87.073,87.073,0,0,1,333.569,228.563ZM345.406,272.5h44.68v37.969A88.115,88.115,0,0,1,345.406,272.5Zm75.771,43.674a87.266,87.266,0,0,1-27.09-4.293V246.933L421.8,223.2l65.416,62.866A87.431,87.431,0,0,1,421.176,316.171Zm68.608-33.192-64.928-62.4,60.379-51.709a87.429,87.429,0,0,1,4.549,114.107Z" transform="translate(-329.569 -136.957)" fill="#161615"/></svg>